<svg xmlns="http://www.w3.org/2000/svg" viewBox="0 0 1200 800" role="img" aria-labelledby="title desc">
  <title id="title">Two large breed dogs facing forward</title>
  <desc id="desc">An illustration of two large breed dogs sitting side by side and facing the viewer.</desc>
  <defs>
    <linearGradient id="bg" x1="0%" y1="0%" x2="100%" y2="100%">
      <stop offset="0%" stop-color="#eef7e8"/>
      <stop offset="100%" stop-color="#d8ebc7"/>
    </linearGradient>
  </defs>
  <rect width="1200" height="800" fill="url(#bg)"/>
  <rect x="90" y="590" width="1020" height="130" rx="65" fill="#c7b08b"/>
  <ellipse cx="370" cy="300" rx="110" ry="125" fill="#8f6849"/>
  <ellipse cx="330" cy="245" rx="34" ry="74" fill="#7a553a"/>
  <ellipse cx="410" cy="245" rx="34" ry="74" fill="#7a553a"/>
  <ellipse cx="370" cy="350" rx="86" ry="98" fill="#9e7652"/>
  <ellipse cx="335" cy="318" rx="15" ry="18" fill="#1f1f1f"/>
  <ellipse cx="405" cy="318" rx="15" ry="18" fill="#1f1f1f"/>
  <ellipse cx="370" cy="354" rx="26" ry="18" fill="#2f241c"/>
  <path d="M330 386 Q370 420 410 386" fill="none" stroke="#2f241c" stroke-width="8" stroke-linecap="round"/>
  <path d="M305 470 C290 560 285 630 287 690" fill="none" stroke="#8f6849" stroke-width="34" stroke-linecap="round"/>
  <path d="M435 470 C450 560 455 630 453 690" fill="none" stroke="#8f6849" stroke-width="34" stroke-linecap="round"/>
  <path d="M335 470 C355 555 360 630 360 690" fill="none" stroke="#9e7652" stroke-width="30" stroke-linecap="round"/>
  <path d="M405 470 C385 555 380 630 380 690" fill="none" stroke="#9e7652" stroke-width="30" stroke-linecap="round"/>
  <path d="M280 470 C320 445 420 445 460 470 L490 620 C430 650 310 650 250 620 Z" fill="#8f6849"/>
  <ellipse cx="820" cy="305" rx="118" ry="132" fill="#d2b48c"/>
  <ellipse cx="775" cy="245" rx="35" ry="76" fill="#c19b71"/>
  <ellipse cx="865" cy="245" rx="35" ry="76" fill="#c19b71"/>
  <ellipse cx="820" cy="355" rx="90" ry="102" fill="#e0c39a"/>
  <ellipse cx="782" cy="320" rx="15" ry="18" fill="#1f1f1f"/>
  <ellipse cx="858" cy="320" rx="15" ry="18" fill="#1f1f1f"/>
  <ellipse cx="820" cy="356" rx="28" ry="18" fill="#3f3127"/>
  <path d="M776 389 Q820 426 864 389" fill="none" stroke="#3f3127" stroke-width="8" stroke-linecap="round"/>
  <path d="M748 474 C730 560 728 630 730 692" fill="none" stroke="#d2b48c" stroke-width="34" stroke-linecap="round"/>
  <path d="M892 474 C910 560 912 630 910 692" fill="none" stroke="#d2b48c" stroke-width="34" stroke-linecap="round"/>
  <path d="M784 474 C802 560 805 630 805 692" fill="none" stroke="#e0c39a" stroke-width="30" stroke-linecap="round"/>
  <path d="M856 474 C838 560 835 630 835 692" fill="none" stroke="#e0c39a" stroke-width="30" stroke-linecap="round"/>
  <path d="M725 472 C770 446 870 446 915 472 L950 620 C890 650 750 650 690 620 Z" fill="#d2b48c"/>
  <circle cx="186" cy="140" r="38" fill="#ffffff" opacity="0.55"/>
  <circle cx="1015" cy="168" r="30" fill="#ffffff" opacity="0.45"/>
  <circle cx="1080" cy="120" r="22" fill="#ffffff" opacity="0.35"/>
</svg>
